<?xml version="1.0" encoding="UTF-8"?>
<svg width="120px" height="41px" viewBox="0 0 120 41" version="1.1" xmlns="http://www.w3.org/2000/svg" xmlns:xlink="http://www.w3.org/1999/xlink">
    <!-- Generator: sketchtool 51.2 (57519) - http://www.bohemiancoding.com/sketch -->
    <title>4094A0F5-B4A9-45FA-A8C5-AC6CE6E88171</title>
    <desc>Created with sketchtool.</desc>
    <defs></defs>
    <g id="Symbols" stroke="none" stroke-width="1" fill="none" fill-rule="evenodd">
        <g id="Components/Normal/Footer" transform="translate(-135.000000, -595.000000)">
            <g id="Footer">
                <g id="Contents" transform="translate(135.000000, 60.000000)">
                    <g id="Bottom" transform="translate(0.000000, 535.000000)">
                        <g id="Left-Side">
                            <g id="Logo/Black">
                                <g id="Logo">
                                    <path d="M67.4706719,18.9539282 L59.2498167,18.9539282 L59.2498167,11.4395993 L56.3444354,11.4395993 L56.3444354,29.5148651 L59.2498167,29.5148651 L59.2498167,21.4363613 L67.4706719,21.4363613 L67.4706719,29.5148651 L70.3880685,29.5148651 L70.3880685,11.4395993 L67.4706719,11.4395993 L67.4706719,18.9539282 Z M78.0226372,18.9539282 L78.0226372,13.9340362 L86.7097527,13.9340362 L86.7097527,11.4395993 L75.117256,11.4395993 L75.117256,29.5148651 L86.8299065,29.5148651 L86.8299065,27.032432 L78.0226372,27.032432 L78.0226372,21.4363613 L85.6043383,21.4363613 L85.6043383,18.9539282 L78.0226372,18.9539282 Z M101.209532,11.4395993 L96.4248323,25.2397213 L91.663136,11.4395993 L88.5087465,11.4395993 L95.2065672,29.5148651 L97.6656311,29.5148651 L104.375878,11.4395993 L101.209532,11.4395993 Z M120,21.0414071 L120,19.9370648 C120,18.1924685 119.726888,16.660192 119.18107,15.3395897 C118.627803,14.0009616 117.833357,12.9754619 116.801328,12.2664568 C115.767218,11.5560218 114.571059,11.1995249 113.219945,11.1995249 C111.890491,11.1995249 110.70477,11.5603627 109.670385,12.2793966 C108.639316,12.9961251 107.841852,14.0268842 107.281372,15.3685546 C106.72791,16.6934224 106.450949,18.2162201 106.450949,19.9370648 L106.450941,21.1957172 C106.466066,22.8888106 106.752557,24.3779811 107.310501,25.6674162 C107.874927,26.9718332 108.672225,27.9796934 109.698956,28.6877103 C110.729468,29.3983349 111.912964,29.7549395 113.242063,29.7549395 C114.600893,29.7549395 115.795355,29.4002916 116.818535,28.693584 C117.839033,27.9887292 118.627603,26.9696522 119.180817,25.6394925 C119.726808,24.3267007 120,22.7943072 120,21.0414071 Z M117.098294,19.9129504 L117.098294,21.2093307 C117.077609,23.1396623 116.720861,24.6022273 116.046096,25.5954461 C115.402074,26.543412 114.515729,27.0054767 113.335036,27.0054767 C112.166231,27.0054767 111.27115,26.5155612 110.599902,25.503899 C109.897793,24.4457253 109.539278,22.9602876 109.539278,21.0412814 L109.539278,19.7569047 C109.559928,17.8833995 109.924694,16.4377739 110.61826,15.4192428 C111.281521,14.4452162 112.163547,13.9727622 113.31337,13.9727622 C114.500324,13.9727622 115.39766,14.445984 116.05661,15.4183324 C116.744845,16.4338944 117.098294,17.9307638 117.098294,19.9129504 Z" id="HEVO" fill="#424672" fill-rule="nonzero"></path>
                                    <g id="Icon">
                                        <ellipse id="Oval" fill="#3D7FE0" cx="17.7904143" cy="11.1021378" rx="2.97319253" ry="3.01900238"></ellipse>
                                        <ellipse id="Oval-Copy-2" fill="#2BBAE7" cx="27.6360682" cy="13.0498812" rx="2.97319253" ry="3.01900238"></ellipse>
                                        <ellipse id="Oval-Copy-5" fill="#4ABC90" cx="30.7554833" cy="22.9833729" rx="2.97319253" ry="3.01900238"></ellipse>
                                        <ellipse id="Oval-Copy-6" fill="#FFD101" cx="23.8342811" cy="30.1900238" rx="2.97319253" ry="3.01900238"></ellipse>
                                        <ellipse id="Oval-Copy-8" fill="#FF7D42" cx="13.7936637" cy="27.9501188" rx="2.97319253" ry="3.01900238"></ellipse>
                                        <ellipse id="Oval-Copy-10" fill="#FF5072" cx="10.7717303" cy="17.8218527" rx="2.97319253" ry="3.01900238"></ellipse>
                                        <ellipse id="Oval-Copy-12" fill="#1CCCC4" cx="20.9098294" cy="20.6947743" rx="3.7530463" ry="3.74940618"></ellipse>
                                        <ellipse id="Oval-Copy" fill="#3D7FE0" cx="15.3046304" cy="2.38598575" rx="2.43704305" ry="2.38598575"></ellipse>
                                        <ellipse id="Oval-Copy-3" fill="#2BBAE7" cx="33.6311942" cy="6.18408551" rx="2.43704305" ry="2.38598575"></ellipse>
                                        <ellipse id="Oval-Copy-4" fill="#4ABC90" cx="39.0901706" cy="25.4667458" rx="2.43704305" ry="2.38598575"></ellipse>
                                        <ellipse id="Oval-Copy-7" fill="#FFD101" cx="26.1251015" cy="38.6140143" rx="2.43704305" ry="2.38598575"></ellipse>
                                        <ellipse id="Oval-Copy-9" fill="#FF7D42" cx="7.31112916" cy="34.2315914" rx="2.43704305" ry="2.38598575"></ellipse>
                                        <ellipse id="Oval-Copy-11" fill="#FF5072" cx="2.43704305" cy="16.2149644" rx="2.43704305" ry="2.38598575"></ellipse>
                                    </g>
                                </g>
                            </g>
                        </g>
                    </g>
                </g>
            </g>
        </g>
    </g>
</svg>